name ./resultDataOpenSim/trcMotMarkerGrf/sub06/grf-14-03.mot
datacolumns 19
datarows 15
range 1.62400000 1.68000000
endheader

                time	     ground_force_vx	     ground_force_vy	     ground_force_vz	     ground_force_px	     ground_force_py	     ground_force_pz	   l_ground_force_vx	   l_ground_force_vy	   l_ground_force_vz	   l_ground_force_px	   l_ground_force_py	   l_ground_force_pz	     ground_torque_x	     ground_torque_y	     ground_torque_z	   l_ground_torque_x	   l_ground_torque_y	   l_ground_torque_z	
          1.62400000	        115.08394795	        698.06426089	        -47.37378393	          0.91665073	          0.00000000	          0.07227213	          0.00000000	          0.00000000	          0.00000000	          0.00000000	          0.00000000	          0.00000000	          0.00000000	          4.37487406	          0.00000000	          0.00000000	          0.00000000	          0.00000000	
          1.62800000	        119.89379181	        700.75182417	        -48.61068621	          0.91691930	          0.00000000	          0.07222773	          0.00000000	          0.00000000	          0.00000000	          0.00000000	          0.00000000	          0.00000000	          0.00000000	          4.37463653	          0.00000000	          0.00000000	          0.00000000	          0.00000000	
          1.63200000	        124.41433497	        702.71738442	        -49.78467644	          0.91723709	          0.00000000	          0.07216763	          0.00000000	          0.00000000	          0.00000000	          0.00000000	          0.00000000	          0.00000000	          0.00000000	          4.36804092	          0.00000000	          0.00000000	          0.00000000	          0.00000000	
          1.63600000	        128.68598727	        703.91844390	        -50.87924828	          0.91759556	          0.00000000	          0.07209030	          0.00000000	          0.00000000	          0.00000000	          0.00000000	          0.00000000	          0.00000000	          0.00000000	          4.35564685	          0.00000000	          0.00000000	          0.00000000	          0.00000000	
          1.64000000	        132.79040740	        704.30347907	        -51.86829302	          0.91798346	          0.00000000	          0.07199604	          0.00000000	          0.00000000	          0.00000000	          0.00000000	          0.00000000	          0.00000000	          0.00000000	          4.33666576	          0.00000000	          0.00000000	          0.00000000	          0.00000000	
          1.64400000	        136.81850448	        703.81703546	        -52.71710701	          0.91838849	          0.00000000	          0.07188470	          0.00000000	          0.00000000	          0.00000000	          0.00000000	          0.00000000	          0.00000000	          0.00000000	          4.30967199	          0.00000000	          0.00000000	          0.00000000	          0.00000000	
          1.64800000	        140.84596123	        702.39639614	        -53.38522461	          0.91880543	          0.00000000	          0.07175245	          0.00000000	          0.00000000	          0.00000000	          0.00000000	          0.00000000	          0.00000000	          0.00000000	          4.27346862	          0.00000000	          0.00000000	          0.00000000	          0.00000000	
          1.65200000	        144.91469211	        699.96660438	        -53.83089818	          0.91922860	          0.00000000	          0.07159501	          0.00000000	          0.00000000	          0.00000000	          0.00000000	          0.00000000	          0.00000000	          0.00000000	          4.22790879	          0.00000000	          0.00000000	          0.00000000	          0.00000000	
          1.65600000	        149.01582239	        696.44472941	        -54.02051530	          0.91964642	          0.00000000	          0.07141329	          0.00000000	          0.00000000	          0.00000000	          0.00000000	          0.00000000	          0.00000000	          0.00000000	          4.17458510	          0.00000000	          0.00000000	          0.00000000	          0.00000000	
          1.66000000	        153.08279229	        691.74975044	        -53.93729604	          0.92005467	          0.00000000	          0.07121660	          0.00000000	          0.00000000	          0.00000000	          0.00000000	          0.00000000	          0.00000000	          0.00000000	          4.11730186	          0.00000000	          0.00000000	          0.00000000	          0.00000000	
          1.66400000	        157.00532129	        685.80924173	        -53.58198858	          0.92045492	          0.00000000	          0.07101791	          0.00000000	          0.00000000	          0.00000000	          0.00000000	          0.00000000	          0.00000000	          0.00000000	          4.06208958	          0.00000000	          0.00000000	          0.00000000	          0.00000000	
          1.66800000	        160.66091623	        678.56475844	        -52.96770402	          0.92084528	          0.00000000	          0.07082358	          0.00000000	          0.00000000	          0.00000000	          0.00000000	          0.00000000	          0.00000000	          0.00000000	          4.01634702	          0.00000000	          0.00000000	          0.00000000	          0.00000000	
          1.67200000	        163.95660188	        669.97763839	        -52.11208531	          0.92122982	          0.00000000	          0.07063252	          0.00000000	          0.00000000	          0.00000000	          0.00000000	          0.00000000	          0.00000000	          0.00000000	          3.98673732	          0.00000000	          0.00000000	          0.00000000	          0.00000000	
          1.67600000	        166.88203070	        660.02437207	        -51.02564053	          0.92161398	          0.00000000	          0.07044247	          0.00000000	          0.00000000	          0.00000000	          0.00000000	          0.00000000	          0.00000000	          0.00000000	          3.97587244	          0.00000000	          0.00000000	          0.00000000	          0.00000000	
          1.68000000	        169.56655745	        648.67570332	        -49.70751450	          0.92199145	          0.00000000	          0.07025163	          0.00000000	          0.00000000	          0.00000000	          0.00000000	          0.00000000	          0.00000000	          0.00000000	          3.97864754	          0.00000000	          0.00000000	          0.00000000	          0.00000000	
